<?xml version="1.0" encoding="iso-8859-1"?>
<!-- Generator: Adobe Illustrator 12.0.1, SVG Export Plug-In . SVG Version: 6.00 Build 51448)  -->
<!DOCTYPE svg PUBLIC "-//W3C//DTD SVG 1.0//EN" "http://www.w3.org/TR/2001/REC-SVG-20010904/DTD/svg10.dtd" [
	<!ENTITY ns_svg "http://www.w3.org/2000/svg">
	<!ENTITY ns_xlink "http://www.w3.org/1999/xlink">
]>
<svg  version="1.0" id="Mail" xmlns="&ns_svg;" xmlns:xlink="&ns_xlink;" width="298.5" height="187" viewBox="0 0 298.5 187"
	 overflow="visible" enable-background="new 0 0 298.5 187" xml:space="preserve">
<g>
	<path fill="#FFFFFF" d="M283.5,8H15c-3.8598633,0-7,3.1401367-7,7v157c0,3.859375,3.1401367,7,7,7h268.5c3.859375,0,7-3.140625,7-7
		V15C290.5,11.1401367,287.359375,8,283.5,8z"/>
	<radialGradient id="XMLID_2_" cx="21" cy="19" r="296.1131592" gradientUnits="userSpaceOnUse">
		<stop  offset="0" style="stop-color:#E8F6F8"/>
		<stop  offset="1" style="stop-color:#C8D9DD"/>
	</radialGradient>
	<path fill="url(#XMLID_2_)" d="M282.3339844,166.6669922c0,2.2089844-1.7910156,4-4,4H20.3330078c-2.2089844,0-4-1.7910156-4-4
		V19.6665039c0-2.2089844,1.7910156-4,4-4h258.0009766c2.2089844,0,4,1.7910156,4,4V166.6669922z"/>
	<path fill="#FFFFFF" d="M290.5,15c0-3.8598633-3.140625-7-7-7h-12.2529297
		c-43.2773438,36.7084961-112.7646484,95.6132812-117.1357422,99.1269531
		c-2.125,1.3955078-9.5849609,1.4306641-11.6625977-0.0019531C137.1323242,102.8134766,48.105957,28.2954102,23.8623047,8H15
		c-3.8598633,0-7,3.1401367-7,7v11.0209961c16.0712891,13.4545898,62.1118164,51.9936523,92.1708984,77.1088867L8,161.7460938V172
		c0,3.859375,3.1401367,7,7,7h10.5942383l93.9233398-59.7207031c4.206543,3.5048828,7.0112305,5.8339844,7.8608398,6.5224609
		c10.5053711,8.515625,31.1948242,8.53125,41.7700195,0.0302734c0.8173828-0.6572266,3.6298828-3.0117188,7.8720703-6.5839844
		L272.1582031,179H283.5c3.859375,0,7-3.140625,7-7v-9.8212891l-94.2255859-59.1884766
		C227.5683594,76.5224609,276.3046875,35.1826172,290.5,23.140625V15z"/>
	<g>
		<path fill="#7CA5A9" d="M15,0C6.7290039,0,0,6.7290039,0,15v157c0,8.2714844,6.7290039,15,15,15h268.5
			c8.2714844,0,15-6.7285156,15-15V15c0-8.2709961-6.7285156-15-15-15H15z M8,172V15c0-3.8598633,3.1401367-7,7-7h268.5
			c3.859375,0,7,3.1401367,7,7v157c0,3.859375-3.140625,7-7,7H15C11.1401367,179,8,175.859375,8,172z"/>
	</g>
	<path fill="#7CA5A9" d="M132.4160156,119.5869141c7.5307617,6.1044922,24.1318359,6.1103516,31.7197266,0.0097656
		c1.0078125-0.8105469,5.2070312-4.3349609,11.5009766-9.6425781l110.4101562,68.7480469
		c2.6826172-0.9736328,4.6083984-3.5361328,4.6210938-6.5478516l-108.6064453-67.6240234
		c28.890625-24.402832,88.6992188-75.0839844,108.3046875-91.7109375c-0.8623047-2.8164062-3.4560547-4.8779297-6.5341797-4.9482422
		c-27.6640625,23.4609375-119.7324219,101.4902344-124.7080078,105.4912109
		c-4.6806641,3.7617188-17.0341797,3.7675781-21.6699219,0.0097656
		c-5.2753906-4.2753906-97.8510742-81.7431641-125.5141602-104.9072266
		c-2.4287109,1.0996094-4.1259766,3.5410156-4.1259766,6.3759766v0.6040039
		c21.6416016,18.1181641,78.2543945,65.4780273,106.4643555,89.0395508L7.784668,171.5693359v0.5390625
		c0,2.8134766,1.6728516,5.2392578,4.0732422,6.3505859l108.8754883-68.5849609
		C127.0961914,115.1835938,131.3579102,118.7285156,132.4160156,119.5869141z"/>
</g>
</svg>
